<svg xmlns="http://www.w3.org/2000/svg" viewBox="0 0 64 64" role="img" aria-label="Converter Mall">
<defs><linearGradient id="g" x1="0" y1="0" x2="1" y2="1"><stop stop-color="#2563eb"/><stop offset="1" stop-color="#7c3aed"/></linearGradient></defs>
<rect width="64" height="64" rx="15" fill="url(#g)"/>
<path d="M16 19a5 5 0 0 1 5-5h11l5 6h11a5 5 0 0 1 5 5v20a5 5 0 0 1-5 5H21a5 5 0 0 1-5-5V19z" fill="#fff" opacity=".96"/>
<path d="M25 32h16m-5-5 5 5-5 5M39 42H23m5 5-5-5 5-5" fill="none" stroke="#2563eb" stroke-width="3.2" stroke-linecap="round" stroke-linejoin="round"/>
</svg>